<svg xmlns="http://www.w3.org/2000/svg" viewBox="0 0 256 256" role="img" aria-label="FRP Control Client cat icon">
  <defs>
    <linearGradient id="bg" x1="36" y1="18" x2="220" y2="238" gradientUnits="userSpaceOnUse">
      <stop offset="0" stop-color="#3d8b8f"/>
      <stop offset="1" stop-color="#234f54"/>
    </linearGradient>
    <linearGradient id="fur" x1="80" y1="62" x2="178" y2="198" gradientUnits="userSpaceOnUse">
      <stop offset="0" stop-color="#ffe4c6"/>
      <stop offset="1" stop-color="#f1a977"/>
    </linearGradient>
    <filter id="softShadow" x="-20%" y="-20%" width="140%" height="140%">
      <feDropShadow dx="0" dy="8" stdDeviation="8" flood-color="#153337" flood-opacity=".3"/>
    </filter>
  </defs>
  <rect x="14" y="14" width="228" height="228" rx="54" fill="url(#bg)"/>
  <path d="M48 43c36-24 111-23 158 7" fill="none" stroke="#62b5b4" stroke-width="8" stroke-linecap="round" opacity=".35"/>
  <g filter="url(#softShadow)">
    <path d="M70 101 74 48c1-10 12-15 20-9l41 30 41-30c8-6 19-1 20 9l4 53" fill="url(#fur)"/>
    <path d="M92 69 96 103 122 84Z" fill="#ffb1ba" opacity=".9"/>
    <path d="M178 69 174 103 148 84Z" fill="#ffb1ba" opacity=".9"/>
    <path d="M62 124c0-43 31-72 73-72s73 29 73 72c0 50-35 82-73 82s-73-32-73-82Z" fill="url(#fur)"/>
    <path d="M93 133c10 10 22 10 32 0" fill="none" stroke="#48332f" stroke-width="8" stroke-linecap="round"/>
    <path d="M145 133c10 10 22 10 32 0" fill="none" stroke="#48332f" stroke-width="8" stroke-linecap="round"/>
    <path d="M129 149c3-4 9-4 12 0 3 5-2 10-6 12-4-2-9-7-6-12Z" fill="#d86b72"/>
    <path d="M135 162c-5 9-13 12-23 11" fill="none" stroke="#6d4640" stroke-width="5" stroke-linecap="round"/>
    <path d="M135 162c5 9 13 12 23 11" fill="none" stroke="#6d4640" stroke-width="5" stroke-linecap="round"/>
    <path d="M83 154 39 145M82 169 39 171M187 154l44-9M188 169l43 2" fill="none" stroke="#f7ead8" stroke-width="5" stroke-linecap="round"/>
    <circle cx="102" cy="112" r="7" fill="#fff2dc" opacity=".8"/>
    <circle cx="168" cy="112" r="7" fill="#fff2dc" opacity=".8"/>
  </g>
  <path d="M205 55 211 68 224 74 211 80 205 93 199 80 186 74 199 68Z" fill="#ffe6a7"/>
  <circle cx="52" cy="205" r="7" fill="#9de3dc" opacity=".8"/>
</svg>
